<?xml version="1.0" encoding="UTF-8" standalone="no"?><!DOCTYPE svg PUBLIC "-//W3C//DTD SVG 1.1//EN" "http://www.w3.org/Graphics/SVG/1.1/DTD/svg11.dtd"><svg width="400px" height="400px" version="1.1" xmlns="http://www.w3.org/2000/svg" xmlns:xlink="http://www.w3.org/1999/xlink" xml:space="preserve" xmlns:serif="http://www.serif.com/" style="fill-rule:evenodd;clip-rule:evenodd;stroke-linejoin:round;stroke-miterlimit:2;"><g id="Layer1"><path d="M276.961,318.881L277.866,318.757L304.446,323.355L240.006,335.806L120.65,335.806L235.005,324.6L265.025,320.508L235.835,324.26L273.428,296.765L276.961,318.881ZM97.885,289.92L119.906,335.806L97.885,327.473L97.885,289.92ZM142.764,296.924L154.378,258.996L186.572,307.933L155.72,300.231L185.998,307.958L186.56,307.933L186.31,308.038L186.311,308.038L186.56,307.933L235.005,324.343L120.65,335.806L186.116,308.121L186.112,308.121L120.105,335.806L112.04,311.286L142.322,296.812L142.764,296.924ZM142.322,296.606L105.645,282.311L142.322,296.765L112.04,311.286L119.906,335.806L97.885,288.452L99.473,263.011L142.322,296.606ZM210.114,239.611L187.071,307.933L235.297,324.26L273.428,296.606L210.114,239.611ZM302.593,95.778L274.607,102.487L274.397,103.268L274.521,103.339L274.205,103.38L289.158,147.754L295.126,169.227L289.43,148.45L274.521,104.266L305.849,148.45L297.135,176.454L297.167,176.568L297.237,176.501L297.177,176.606L297.237,176.501L299.314,232.311L299.319,232.298L302.122,285.045L273.726,295.868L273.726,295.869L302.011,285.184L302.086,285.084L302.09,285.154L302.122,285.142L302.092,285.182L304.446,323.355L277.215,318.437L276.975,318.757L273.498,296.432L273.428,296.606L210.873,239.374L240.111,235.604L210.114,239.374L242.503,174.811L242.45,174.809L209.507,238.636L210.114,239.374L154.378,258.448L154.378,172.23L154.002,171.769L153.861,171.841L153.861,258.448L109.26,194.549L107.485,185.33L109.269,194.791L109.264,194.811L153.861,258.448L98.63,239.611L108.215,199.209L98.63,239.402L100.72,150.191L100.516,149.133L153.741,171.312L100.516,149.133L96.632,105.096L99.689,63.159L154.378,69.536L154.205,69.753L219.003,110.527L127.447,103.339L127.423,103.38L219.003,110.557L241.742,107.583L219.003,110.527L235.319,81.112L235.247,81.071L219.003,110.527L154.378,69.536L207.866,77.014L155.399,69.536L236.952,63.38L286.451,58.326L302.593,95.778ZM210.114,239.611L154.378,258.448L186.817,307.933L210.114,239.611ZM99.483,262.852L98.63,239.611L153.861,258.448L142.743,296.765L99.473,262.853L99.483,262.852ZM265.789,232.299L299.258,232.448L265.789,232.299ZM277.854,194.549L268.21,224.724L277.854,195.133L290.387,183.085L277.854,194.549ZM305.757,148.041L274.521,103.339L302.593,95.778L305.757,148.041Z" style="fill:url(#_Linear1);"/><path d="M277.866,318.757L304.446,323.355L240.006,335.806L277.866,318.757Z" style="fill:rgb(177,189,196);"/><path d="M99.473,262.838L97.885,288.452L105.019,282.064L99.473,262.838Z" style="fill:rgb(215,221,225);"/><path d="M112.04,311.286L105.019,282.064L97.885,288.452L112.04,311.286Z" style="fill:rgb(212,219,223);"/><path d="M120.095,335.806L112.04,311.286L97.885,288.452L120.095,335.806Z" style="fill:rgb(207,214,219);"/><path d="M236.952,63.38L286.451,58.326L274.378,103.339L236.952,63.38Z" style="fill:rgb(229,233,235);"/><path d="M235.365,81.029L219.003,110.527L274.521,103.339L235.365,81.029Z" style="fill:rgb(229,233,235);"/><path d="M286.451,58.326L274.185,103.339L302.593,95.778L286.451,58.326Z" style="fill:rgb(224,229,232);"/><path d="M305.757,148.041L274.185,103.339L302.593,95.778L305.757,148.041Z" style="fill:rgb(217,223,226);"/><path d="M96.632,105.096L154.378,69.536L99.689,63.159L96.632,105.096Z" style="fill:rgb(253,253,253);"/><path d="M276.897,318.757L302.086,285.084L304.446,323.355L276.897,318.757Z" style="fill:rgb(176,189,195);"/><path d="M297.121,176.501L289.43,148.45L305.849,148.45L297.121,176.501Z" style="fill:rgb(206,214,218);"/><path d="M155.399,69.536L235.365,80.933L236.952,63.38L155.399,69.536Z" style="fill:rgb(237,240,241);"/><path d="M100.735,149.531L109.269,194.791L98.63,239.402L100.735,149.531Z" style="fill:rgb(232,235,237);"/><path d="M100.516,149.133L127.447,103.339L96.632,105.096L100.516,149.133Z" style="fill:rgb(247,248,249);"/><path d="M96.632,105.096L127.447,103.339L154.378,69.536L96.632,105.096Z" style="fill:rgb(248,249,250);"/><path d="M105.019,282.064L142.322,296.765L112.04,311.286L105.019,282.064Z" style="fill:rgb(207,214,219);"/><path d="M112.04,311.286L142.322,296.812L186.558,307.933L112.04,311.286Z" style="fill:rgb(201,210,214);"/><path d="M153.846,171.578L242.503,174.707L210.114,239.374L153.846,171.578Z" style="fill:rgb(213,219,223);"/><path d="M153.846,171.578L219.003,110.557L242.503,174.811L153.846,171.578Z" style="fill:rgb(224,229,232);"/><path d="M219.003,110.557L274.191,103.339L242.503,174.811L219.003,110.557Z" style="fill:rgb(220,225,228);"/><path d="M219.003,110.557L126.898,103.339L153.861,171.841L219.003,110.557Z" style="fill:rgb(235,238,240);"/><path d="M242.503,174.811L265.742,232.382L210.114,239.374L242.503,174.811Z" style="fill:rgb(205,213,217);"/><path d="M274.191,103.339L289.158,147.754L242.503,174.811L274.191,103.339Z" style="fill:rgb(213,220,223);"/><path d="M242.503,174.811L289.158,147.754L297.237,176.82L242.503,174.811Z" style="fill:rgb(208,215,220);"/><path d="M265.742,232.448L242.503,174.811L277.854,194.549L265.742,232.448Z" style="fill:rgb(204,212,216);"/><path d="M277.854,194.549L242.503,174.811L297.237,176.82L277.854,194.549Z" style="fill:rgb(204,212,217);"/><path d="M153.846,171.578L210.114,239.611L153.861,258.448L153.846,171.578Z" style="fill:rgb(213,220,223);"/><path d="M153.846,171.578L126.898,103.339L100.516,149.133L153.846,171.578Z" style="fill:rgb(240,243,244);"/><path d="M153.861,171.578L100.516,149.133L109.26,194.549L153.861,171.578Z" style="fill:rgb(233,236,238);"/><path d="M153.861,171.578L109.26,194.549L153.861,258.448L153.861,171.578Z" style="fill:rgb(223,228,231);"/><path d="M210.114,239.611L153.861,258.448L186.558,307.933L210.114,239.611Z" style="fill:rgb(202,210,215);"/><path d="M209.865,239.374L265.742,232.298L273.428,296.606L209.865,239.374Z" style="fill:rgb(195,204,210);"/><path d="M210.114,239.611L186.558,307.933L273.428,296.606L210.114,239.611Z" style="fill:rgb(193,203,208);"/><path d="M265.742,232.298L277.854,194.549L297.237,176.501L265.742,232.298Z" style="fill:rgb(201,210,214);"/><path d="M305.849,148.45L289.43,148.45L274.185,103.339L305.849,148.45Z" style="fill:rgb(211,218,222);"/><path d="M154.378,69.536L219.003,110.527L235.365,80.858L154.378,69.536Z" style="fill:rgb(234,238,239);"/><path d="M302.122,285.142L273.428,295.981L276.975,318.757L302.122,285.142Z" style="fill:rgb(180,192,198);"/><path d="M235.005,324.6L240.006,335.806L277.866,318.757L235.005,324.6Z" style="fill:rgb(180,192,198);"/><path d="M142.743,297.149L99.473,262.838L104.905,282.022L142.743,297.149Z" style="fill:rgb(212,219,223);"/><path d="M127.447,103.339L219.003,110.527L153.861,69.536L127.447,103.339Z" style="fill:rgb(240,242,243);"/><path d="M235.005,324.6L273.428,296.269L276.897,318.757L235.005,324.6Z" style="fill:rgb(181,192,199);"/><path d="M299.319,232.298L273.428,295.981L302.122,285.045L299.319,232.298Z" style="fill:rgb(185,196,202);"/><path d="M297.237,176.501L299.319,232.448L265.742,232.298L297.237,176.501Z" style="fill:rgb(198,207,212);"/><path d="M273.428,296.606L265.742,232.298L299.319,232.448L273.428,296.606Z" style="fill:rgb(191,201,206);"/><path d="M153.861,258.448L109.26,194.805L98.63,239.611L153.861,258.448Z" style="fill:rgb(220,226,229);"/><path d="M153.861,258.448L98.63,239.611L99.484,262.853L153.861,258.448Z" style="fill:rgb(217,223,226);"/><path d="M186.572,307.933L153.861,258.448L142.743,296.991L186.572,307.933Z" style="fill:rgb(202,211,215);"/><path d="M99.473,262.853L153.861,258.448L142.743,297.149L99.473,262.853Z" style="fill:rgb(210,217,221);"/><path d="M273.428,296.606L186.558,307.933L235.005,324.6L273.428,296.606Z" style="fill:rgb(186,197,202);"/><path d="M186.56,307.933L112.04,311.286L120.105,335.806L186.56,307.933Z" style="fill:rgb(202,210,215);"/><path d="M120.095,335.806L186.56,307.933L235.31,324.6L120.095,335.806Z" style="fill:rgb(190,200,206);"/><path d="M236.952,63.38L235.005,80.933L274.378,103.339L236.952,63.38Z" style="fill:rgb(230,234,236);"/><path d="M120.095,335.806L235.005,324.6L240.006,335.806L120.095,335.806Z" style="fill:rgb(184,195,201);"/><path d="M97.885,288.452L120.095,335.806L97.885,327.473L97.885,288.452Z" style="fill:rgb(205,213,217);"/><g id="Layer11" serif:id="Layer1"></g></g><defs><linearGradient id="_Linear1" x1="0" y1="0" x2="1" y2="0" gradientUnits="userSpaceOnUse" gradientTransform="matrix(-195.851,-237.015,237.015,-195.851,304.446,317.396)"><stop offset="0" style="stop-color:rgb(173,186,193);stop-opacity:1"/><stop offset="1" style="stop-color:white;stop-opacity:1"/></linearGradient></defs></svg>