<?xml version="1.0" encoding="UTF-8" standalone="no"?><!DOCTYPE svg PUBLIC "-//W3C//DTD SVG 1.1//EN" "http://www.w3.org/Graphics/SVG/1.1/DTD/svg11.dtd"><svg width="400px" height="400px" version="1.1" xmlns="http://www.w3.org/2000/svg" xmlns:xlink="http://www.w3.org/1999/xlink" xml:space="preserve" xmlns:serif="http://www.serif.com/" style="fill-rule:evenodd;clip-rule:evenodd;stroke-linejoin:round;stroke-miterlimit:2;"><path d="M293.185,96.264L323.646,128.526L333.007,142.219L333.007,143.115L348.11,191.831L348.11,217.552L333.007,252.47L277.844,305.957L313.016,252.47L312.965,252.388L252.948,255.171L313.016,252.47L277.386,305.847L277.844,305.957L275.384,306.238L210.252,329.857L159.939,319.486L159.965,319.483L159.914,319.424L159.371,319.486L159.805,319.299L146.203,303.564L158.747,319.486L115.473,305.957L85.819,281.971L65.849,255.529L105.789,276.732L135.675,291.969L135.692,291.957L105.789,276.029L119.935,239.751L120.222,239.815L176.271,173.142L268.316,183.484L269.1,182.633L310.291,248.057L269.889,182.633L332.735,192.656L333.007,191.831L269.889,182.633L298.022,128.526L293.185,96.264ZM160.179,319.394L159.978,319.482L189.213,316.079L160.179,319.394ZM55.29,234.094L79.807,239.751L105.789,276.732L65.849,254.947L55.29,234.094ZM51.89,189.21L55.255,233.696L79.807,239.751L51.89,189.21ZM176.04,172.939L176.271,173.142L175.902,173.103L119.935,239.751L105.427,275.355L79.807,239.751L51.965,188.921L51.89,188.915L51.914,188.828L51.89,188.785L51.925,188.788L62.743,148.991L79.807,148.991L73.999,190.618L74.001,190.632L79.807,148.991L106.356,111.555L132.473,88.097L176.271,111.555L132.636,88.097L202.668,68.934L202.891,68.573L203.242,68.776L203.984,68.573L203.687,69.033L256.493,99.492L241.888,135.68L241.888,135.68L256.508,99.492L298.022,128.526L269.1,182.633L241.924,135.986L241.755,136.009L241.83,135.825L241.83,135.825L241.755,136.009L241.558,136.119L269.1,182.633L176.271,173.142L206.174,155.926L176.271,172.664L176.271,173.142L176.04,172.939ZM62.743,148.991L93.081,106.576L79.807,148.833L62.743,148.991ZM79.807,148.833L106.356,111.555L93.206,106.576L79.807,148.833ZM286.673,96.728L255.547,98.946L203.984,68.573L293.185,96.264L292.606,96.305L298.022,128.526L256.493,99.092L286.673,96.728ZM131.907,88.097L106.356,97.178L93.206,106.407L106.356,111.555L131.907,88.097Z" style="fill:url(#_Radial1);"/><g id="Layer1"><path d="M176.271,173.142L200,257.627L269.1,183.572L176.271,173.142Z" style="fill:rgb(131,138,142);"/><path d="M119.935,240.156L200,257.627L176.271,173.142L119.935,240.156Z" style="fill:rgb(143,148,152);"/><path d="M269.1,182.633L313.016,252.47L200,257.627L269.1,182.633Z" style="fill:rgb(109,118,123);"/><path d="M176.271,173.142L241.755,136.009L268.678,183.844L176.271,173.142Z" style="fill:rgb(132,138,142);"/><path d="M298.022,128.526L268.678,183.844L241.755,136.009L298.022,128.526Z" style="fill:rgb(118,126,130);"/><path d="M333.007,192.085L298.022,128.526L268.678,182.633L333.007,192.085Z" style="fill:rgb(106,115,120);"/><path d="M333.007,191.831L313.016,252.47L268.678,182.633L333.007,191.831Z" style="fill:rgb(102,111,116);"/><path d="M256.508,99.492L298.022,128.526L241.755,136.009L256.508,99.492Z" style="fill:rgb(129,135,139);"/><path d="M176.271,173.142L241.755,136.009L176.271,111.555L176.271,173.142Z" style="fill:rgb(147,153,156);"/><path d="M241.755,136.009L176.271,111.555L256.493,99.492L241.755,136.009Z" style="fill:rgb(134,140,144);"/><path d="M176.271,173.142L119.935,167.212L119.935,240.263L176.271,173.142Z" style="fill:rgb(157,161,164);"/><path d="M176.271,111.555L106.356,111.555L176.271,173.142L176.271,111.555Z" style="fill:rgb(161,165,167);"/><path d="M176.271,173.142L119.935,167.212L106.356,111.555L176.271,173.142Z" style="fill:rgb(166,170,172);"/><path d="M119.935,239.751L79.807,239.751L119.935,167.212L119.935,239.751Z" style="fill:rgb(151,156,159);"/><path d="M119.935,167.212L79.807,148.991L106.356,111.555L119.935,167.212Z" style="fill:rgb(174,177,179);"/><path d="M79.807,148.991L99.871,203.481L119.935,167.212L79.807,148.991Z" style="fill:rgb(166,170,172);"/><path d="M79.807,239.751L99.871,203.481L73.999,190.645L79.807,239.751Z" style="fill:rgb(153,158,161);"/><path d="M99.871,203.481L73.999,190.645L79.807,148.991L99.871,203.481Z" style="fill:rgb(164,168,170);"/><path d="M79.807,239.751L105.789,276.048L119.935,239.751L79.807,239.751Z" style="fill:rgb(136,143,146);"/><path d="M200,257.627L136.577,292.429L119.935,239.751L200,257.627Z" style="fill:rgb(127,134,138);"/><path d="M136.577,292.429L221.987,292.429L200,257.553L136.577,292.429Z" style="fill:rgb(117,125,129);"/><path d="M221.987,292.429L200,257.553L313.016,252.47L221.987,292.429Z" style="fill:rgb(107,116,121);"/><path d="M221.987,292.429L277.844,305.957L313.016,252.47L221.987,292.429Z" style="fill:rgb(94,104,110);"/><path d="M105.789,276.048L136.577,292.429L119.935,239.751L105.789,276.048Z" style="fill:rgb(126,133,137);"/><path d="M136.577,292.429L159.968,319.486L221.987,292.429L136.577,292.429Z" style="fill:rgb(111,119,124);"/><path d="M106.356,111.555L132.636,88.097L176.271,111.555L106.356,111.555Z" style="fill:rgb(169,173,175);"/><path d="M176.271,111.555L256.493,99.492L202.891,68.573L176.271,111.555Z" style="fill:rgb(144,149,152);"/><path d="M202.874,68.573L256.493,99.492L293.185,96.264L202.874,68.573Z" style="fill:rgb(128,135,139);"/><path d="M132.636,88.097L176.271,111.555L202.912,68.573L132.636,88.097Z" style="fill:rgb(162,166,168);"/><path d="M132.636,88.097L106.356,97.178L106.356,111.555L132.636,88.097Z" style="fill:rgb(180,182,184);"/><path d="M106.356,111.555L106.356,97.178L93.211,106.576L106.356,111.555Z" style="fill:rgb(184,186,187);"/><path d="M79.807,148.833L106.356,111.555L93.206,106.576L79.807,148.833Z" style="fill:rgb(188,190,191);"/><path d="M79.807,148.991L62.743,148.991L73.999,190.618L79.807,148.991Z" style="fill:rgb(170,173,175);"/><path d="M62.743,148.991L93.211,106.576L79.807,148.833L62.743,148.991Z" style="fill:rgb(180,182,184);"/><path d="M73.999,190.618L51.89,188.915L62.743,148.991L73.999,190.618Z" style="fill:rgb(165,169,171);"/><path d="M79.807,239.751L73.999,190.618L51.89,188.785L79.807,239.751Z" style="fill:rgb(154,159,162);"/><path d="M51.89,188.785L55.255,233.696L79.807,239.751L51.89,188.785Z" style="fill:rgb(147,152,155);"/><path d="M79.807,239.751L65.849,254.947L55.277,233.694L79.807,239.751Z" style="fill:rgb(140,146,150);"/><path d="M65.849,254.947L79.807,239.751L105.789,276.048L65.849,254.947Z" style="fill:rgb(137,143,147);"/><path d="M65.849,254.917L85.819,281.971L105.789,276.048L65.849,254.917Z" style="fill:rgb(129,136,140);"/><path d="M85.819,281.971L115.473,305.957L105.789,276.048L85.819,281.971Z" style="fill:rgb(123,130,135);"/><path d="M115.473,305.957L136.577,292.429L105.789,276.048L115.473,305.957Z" style="fill:rgb(122,129,134);"/><path d="M115.473,305.957L159.968,319.486L136.577,291.345L115.473,305.957Z" style="fill:rgb(116,124,129);"/><path d="M159.939,319.486L276.159,305.957L210.252,329.857L159.939,319.486Z" style="fill:rgb(99,108,114);"/><path d="M298.022,128.526L323.646,128.526L333.007,191.831L298.022,128.526Z" style="fill:rgb(101,110,115);"/><path d="M323.646,128.526L333.007,142.219L333.007,191.831L323.646,128.526Z" style="fill:rgb(99,108,114);"/><path d="M333.007,191.831L348.11,191.831L333.007,143.115L333.007,191.831Z" style="fill:rgb(93,103,109);"/><path d="M348.11,191.831L348.11,217.552L333.007,191.831L348.11,191.831Z" style="fill:rgb(89,99,105);"/><path d="M313.016,252.47L348.11,217.552L333.007,191.831L313.016,252.47Z" style="fill:rgb(90,100,106);"/><path d="M313.016,252.47L333.007,252.47L348.11,217.552L313.016,252.47Z" style="fill:rgb(89,99,105);"/><path d="M277.844,305.957L313.016,252.47L333.007,252.47L277.844,305.957Z" style="fill:rgb(89,99,105);"/><path d="M221.987,292.429L159.371,319.486L277.844,305.957L221.987,292.429Z" style="fill:rgb(102,111,116);"/><path d="M256.493,99.492L293.185,96.264L298.022,128.526L256.493,99.492Z" style="fill:rgb(115,123,128);"/><path d="M293.185,96.264L323.646,128.526L298.022,128.526L293.185,96.264Z" style="fill:rgb(109,117,122);"/><g id="Layer11" serif:id="Layer1"></g></g><defs><radialGradient id="_Radial1" cx="0" cy="0" r="1" gradientUnits="userSpaceOnUse" gradientTransform="matrix(214.674,153.935,-153.935,214.674,92.5195,116.913)"><stop offset="0" style="stop-color:rgb(189,191,192);stop-opacity:1"/><stop offset="1" style="stop-color:rgb(89,99,105);stop-opacity:1"/></radialGradient></defs></svg>