<?xml version="1.0" encoding="UTF-8" standalone="no"?><!DOCTYPE svg PUBLIC "-//W3C//DTD SVG 1.1//EN" "http://www.w3.org/Graphics/SVG/1.1/DTD/svg11.dtd"><svg width="400px" height="400px" version="1.1" xmlns="http://www.w3.org/2000/svg" xmlns:xlink="http://www.w3.org/1999/xlink" xml:space="preserve" xmlns:serif="http://www.serif.com/" style="fill-rule:evenodd;clip-rule:evenodd;stroke-linejoin:round;stroke-miterlimit:2;"><g transform="matrix(1.5215,0,0,1.5215,-83.7941,-81.455)"><g transform="matrix(0.917451,0,0,1,88.2477,64.1422)"><path d="M130.167,50.387L126.484,50.387C124.612,50.387 122.817,51.069 121.494,52.284C120.17,53.498 119.426,55.145 119.426,56.862L119.426,139.705L130.167,139.705L130.167,50.387Z" style="fill:url(#_Radial1);"/></g><g transform="matrix(1,0,0,1,77.1658,72.9126)"><path d="M119.426,118.532C119.426,117.874 119.96,117.34 120.618,117.34C123.008,117.34 128.361,117.34 130.751,117.34C131.067,117.34 131.37,117.466 131.594,117.689C131.817,117.913 131.943,118.216 131.943,118.532C131.943,120.498 131.943,124.544 131.943,127.974C131.943,129.183 132.534,130.315 133.526,131.006C134.517,131.696 135.784,131.859 136.918,131.44C139.669,130.397 142.653,129.857 145.763,129.857C160.298,129.857 172.099,141.658 172.099,156.193C172.099,170.728 160.298,182.529 145.763,182.529C131.227,182.529 119.426,170.728 119.426,156.193L119.426,118.532ZM145.763,143.066C153.008,143.066 158.89,148.948 158.89,156.193C158.89,163.438 153.008,169.32 145.763,169.32C138.518,169.32 132.636,163.438 132.636,156.193C132.636,148.948 138.518,143.066 145.763,143.066Z" style="fill:url(#_Linear2);"/></g></g><g transform="matrix(-1.21788,-0.911986,-0.911986,1.21788,310.183,125.312)"><g transform="matrix(0.917451,0,0,1,-88.8507,-44.6077)"><path d="M130.167,50.387L126.484,50.387C124.612,50.387 122.817,51.069 121.494,52.284C120.17,53.498 119.426,55.145 119.426,56.862L119.426,139.705L130.167,139.705L130.167,50.387Z" style="fill:url(#_Radial3);"/></g><g transform="matrix(1,0,0,1,-99.9325,-35.8372)"><path d="M119.426,118.532C119.426,117.874 119.96,117.34 120.618,117.34C123.008,117.34 128.361,117.34 130.751,117.34C131.067,117.34 131.37,117.466 131.594,117.689C131.817,117.913 131.943,118.216 131.943,118.532C131.943,120.498 131.943,124.544 131.943,127.974C131.943,129.183 132.534,130.315 133.526,131.006C134.517,131.696 135.784,131.859 136.918,131.44C139.669,130.397 142.653,129.857 145.763,129.857C160.298,129.857 172.099,141.658 172.099,156.193C172.099,170.728 160.298,182.529 145.763,182.529C131.227,182.529 119.426,170.728 119.426,156.193L119.426,118.532ZM145.763,143.066C153.008,143.066 158.89,148.948 158.89,156.193C158.89,163.438 153.008,169.32 145.763,169.32C138.518,169.32 132.636,163.438 132.636,156.193C132.636,148.948 138.518,143.066 145.763,143.066Z" style="fill:url(#_Linear4);"/></g></g><g transform="matrix(1.5215,0,0,1.5215,-83.7941,-81.455)"><g transform="matrix(1,0,0,1,0,3)"><circle cx="202.742" cy="165.294" r="3.469" style="fill:url(#_Radial5);"/></g><g transform="matrix(0.226351,0,0,0.226351,156.851,130.88)"><circle cx="202.742" cy="165.294" r="3.469" style="fill:rgb(203,189,189);"/></g></g><g transform="matrix(1.5215,0,0,1.5215,-83.7941,-81.455)"><path d="M200,214.217L208.223,206.646L209.673,216.795L200,214.217Z" style="fill:rgb(137,17,17);"/><path d="M209.673,216.795L200,214.217L202.742,224.482L209.673,216.795Z" style="fill:rgb(131,15,15);"/><path d="M210.492,224.482L209.673,216.795L203.124,224.482L210.492,224.482Z" style="fill:rgb(127,14,14);"/><path d="M210.387,224.482L203.411,224.482L207.74,230.843L210.387,224.482Z" style="fill:rgb(124,13,13);"/><path d="M237.164,207.126L238.662,215.463L241.112,210.024L237.164,207.126Z" style="fill:rgb(104,7,7);"/><path d="M230.034,217.615L238.662,215.463L235.927,224.482L230.034,217.615Z" style="fill:rgb(100,6,6);"/><path d="M239.138,215.12L241.112,209.953L245.645,216.957L239.138,215.12Z" style="fill:rgb(97,5,5);"/><path d="M235.993,224.482L238.924,215.463L245.645,216.957L235.993,224.482Z" style="fill:rgb(96,5,5);"/><path d="M245.645,216.957L236.198,224.482L249.265,228.311L245.645,216.957Z" style="fill:rgb(90,3,3);"/><path d="M203.411,224.785L207.74,230.843L199.417,232.139L203.411,224.785Z" style="fill:rgb(124,13,13);"/><path d="M199.417,232.139L203.124,225.314L197.655,224.117L199.417,232.139Z" style="fill:rgb(129,14,14);"/><path d="M197.655,223.908L202.535,225.185L199.662,214.217L197.655,223.908Z" style="fill:rgb(136,16,16);"/><path d="M199.417,214.217L197.655,223.667L196.592,214.405L199.417,214.217Z" style="fill:rgb(141,18,18);"/><path d="M196.592,214.217L199.417,214.03L198.005,210.336L196.592,214.217Z" style="fill:rgb(145,19,19);"/><path d="M198.005,210.336L199.651,213.793L208.056,206.646L198.005,210.336Z" style="fill:rgb(145,19,19);"/><path d="M198.005,210.22L207.849,206.646L201.831,201.521L198.005,210.22Z" style="fill:rgb(148,20,20);"/><path d="M196.592,214.217L198.005,210.647L196.592,209.283L196.592,214.217Z" style="fill:rgb(148,20,20);"/><path d="M196.592,209.131L198.005,210.22L201.773,201.521L196.592,209.131Z" style="fill:rgb(150,20,20);"/><path d="M201.539,201.521L196.592,208.888L196.592,202.159L201.539,201.521Z" style="fill:rgb(154,21,21);"/><path d="M196.592,201.875L201.539,201.284L196.884,196.639L196.592,201.875Z" style="fill:rgb(157,22,22);"/><path d="M197.299,196.639L201.773,200.918L203.595,195.323L197.299,196.639Z" style="fill:rgb(156,22,22);"/><path d="M202.311,201.875L207.849,206.404L208.997,200.918L202.311,201.875Z" style="fill:rgb(146,19,19);"/><path d="M203.595,195.323L201.773,201.521L208.997,200.554L203.595,195.323Z" style="fill:rgb(150,20,20);"/><path d="M203.866,195.323L208.997,200.245L208.997,194.164L203.866,195.323Z" style="fill:rgb(151,20,20);"/><path d="M196.592,196.444L203.595,195.323L197.299,190.891L196.592,196.444Z" style="fill:rgb(160,23,23);"/><path d="M197.299,190.891L203.595,195.08L204.552,190.253L197.299,190.891Z" style="fill:rgb(161,23,23);"/><path d="M204.792,190.253L203.866,195.08L208.997,193.668L204.792,190.253Z" style="fill:rgb(156,22,22);"/><path d="M205.032,190.253L208.997,193.338L208.426,190.891L205.032,190.253Z" style="fill:rgb(154,21,21);"/><path d="M207.885,206.404L208.997,200.612L210.935,203.756L207.885,206.404Z" style="fill:rgb(143,18,18);"/><path d="M208.402,206.646L209.41,216.143L214.22,209.199L208.402,206.646Z" style="fill:rgb(134,16,16);"/><path d="M208.402,206.008L210.935,203.943L214.22,208.87L208.402,206.008Z" style="fill:rgb(138,17,17);"/><path d="M209.41,216.795L213.46,219.486L210.492,223.811L209.41,216.795Z" style="fill:rgb(125,13,13);"/><path d="M209.41,216.143L214.694,208.87L214.22,219.342L209.41,216.143Z" style="fill:rgb(127,14,14);"/><path d="M211.311,203.943L214.694,208.87L216.489,203.943L211.311,203.943Z" style="fill:rgb(135,16,16);"/><path d="M214.694,209.321L214.22,219.342L222.47,214.106L214.694,209.321Z" style="fill:rgb(123,13,13);"/><path d="M216.489,203.943L214.694,208.87L222.47,214.106L216.489,203.943Z" style="fill:rgb(129,14,14);"/><path d="M216.843,203.943L222.47,214.106L226.377,208.232L216.843,203.943Z" style="fill:rgb(124,13,13);"/><path d="M217.106,203.943L226.377,208.232L225.439,202.864L217.106,203.943Z" style="fill:rgb(127,14,14);"/><path d="M222.929,214.106L226.377,208.87L229.885,217.765L222.929,214.106Z" style="fill:rgb(115,10,10);"/><path d="M226.407,208.232L225.523,202.864L231.116,206.284L226.407,208.232Z" style="fill:rgb(121,12,12);"/><path d="M226.407,208.87L229.885,217.47L231.116,206.359L226.407,208.87Z" style="fill:rgb(115,11,11);"/><path d="M225.523,202.864L231.116,206.359L230.627,203.943L225.523,202.864Z" style="fill:rgb(120,12,12);"/><path d="M229.885,217.47L231.116,206.359L238.662,215.481L229.885,217.47Z" style="fill:rgb(108,9,9);"/><path d="M231.425,206.359L238.662,215.12L237.164,206.879L231.425,206.359Z" style="fill:rgb(109,9,9);"/><path d="M230.591,203.943L231.425,206.078L237.164,206.812L230.591,203.943Z" style="fill:rgb(115,11,11);"/><path d="M236.198,224.482L249.265,228.311L235.993,235.981L236.198,224.482Z" style="fill:rgb(85,2,2);"/><path d="M235.993,235.981L249.265,228.311L247.138,239.768L235.993,235.981Z" style="fill:rgb(77,0,0);"/><path d="M236.198,235.981L246.901,239.768L238.038,250.343L236.198,235.981Z" style="fill:rgb(77,0,0);"/><path d="M236.198,236.438L238.051,250.343L226.389,241.942L236.198,236.438Z" style="fill:rgb(83,2,2);"/><path d="M226.389,241.891L238.051,250.343L227.317,254.952L226.389,241.891Z" style="fill:rgb(79,1,1);"/><path d="M226.389,241.891L227.608,254.952L219.737,241.891L226.389,241.891Z" style="fill:rgb(87,3,3);"/><path d="M219.737,241.891L227.048,254.952L214.512,253.958L219.737,241.891Z" style="fill:rgb(89,3,3);"/><path d="M219.737,241.891L214.512,253.826L205.431,248.422L219.737,241.891Z" style="fill:rgb(97,6,6);"/><path d="M205.431,248.422L219.082,241.891L212.584,237.764L205.431,248.422Z" style="fill:rgb(102,7,7);"/><path d="M205.431,248.422L212.584,237.764L198.907,239.63L205.431,248.422Z" style="fill:rgb(109,9,9);"/><path d="M198.907,239.672L212.584,237.764L199.417,232.139L198.907,239.672Z" style="fill:rgb(117,11,11);"/><path d="M200.39,232.139L207.74,230.967L211.927,237.764L200.39,232.139Z" style="fill:rgb(116,11,11);"/><path d="M198.907,239.672L199.417,232.139L197.655,224.117L198.907,239.672Z" style="fill:rgb(127,14,14);"/></g><g transform="matrix(-1.22024,-0.908824,-0.908824,1.22024,625.035,153.247)"><path d="M200,214.217L208.223,206.646L209.673,216.795L200,214.217Z" style="fill:rgb(146,19,19);"/><path d="M209.673,216.795L200,214.217L202.742,224.482L209.673,216.795Z" style="fill:rgb(143,18,18);"/><path d="M210.492,224.482L209.673,216.795L203.124,224.482L210.492,224.482Z" style="fill:rgb(148,19,19);"/><path d="M210.387,224.482L203.411,224.482L207.74,230.843L210.387,224.482Z" style="fill:rgb(146,19,19);"/><path d="M237.164,207.126L238.662,215.463L241.112,210.024L237.164,207.126Z" style="fill:rgb(209,36,36);"/><path d="M230.034,217.615L238.662,215.463L235.927,224.482L230.034,217.615Z" style="fill:rgb(201,34,34);"/><path d="M239.138,215.12L241.112,209.953L245.645,216.957L239.138,215.12Z" style="fill:rgb(212,37,37);"/><path d="M235.993,224.482L238.924,215.463L245.645,216.957L235.993,224.482Z" style="fill:rgb(210,37,37);"/><path d="M245.645,216.957L236.198,224.482L249.265,228.311L245.645,216.957Z" style="fill:rgb(212,37,37);"/><path d="M203.411,224.785L207.74,230.843L199.417,232.139L203.411,224.785Z" style="fill:rgb(135,16,16);"/><path d="M199.417,232.139L203.124,225.314L197.655,224.117L199.417,232.139Z" style="fill:rgb(131,15,15);"/><path d="M197.655,223.908L202.535,225.185L199.662,214.217L197.655,223.908Z" style="fill:rgb(130,15,15);"/><path d="M199.417,214.217L197.655,223.667L196.592,214.405L199.417,214.217Z" style="fill:rgb(129,14,14);"/><path d="M196.592,214.217L199.417,214.03L198.005,210.336L196.592,214.217Z" style="fill:rgb(131,15,15);"/><path d="M198.005,210.336L199.651,213.793L208.056,206.646L198.005,210.336Z" style="fill:rgb(136,16,16);"/><path d="M198.005,210.22L207.849,206.646L201.831,201.521L198.005,210.22Z" style="fill:rgb(138,17,17);"/><path d="M196.592,214.217L198.005,210.647L196.592,209.283L196.592,214.217Z" style="fill:rgb(129,14,14);"/><path d="M196.592,209.131L198.005,210.22L201.773,201.521L196.592,209.131Z" style="fill:rgb(131,15,15);"/><path d="M201.539,201.521L196.592,208.888L196.592,202.159L201.539,201.521Z" style="fill:rgb(133,15,15);"/><path d="M196.592,201.875L201.539,201.284L196.884,196.639L196.592,201.875Z" style="fill:rgb(134,16,16);"/><path d="M197.299,196.639L201.773,200.918L203.595,195.323L197.299,196.639Z" style="fill:rgb(138,17,17);"/><path d="M202.311,201.875L207.849,206.404L208.997,200.918L202.311,201.875Z" style="fill:rgb(148,19,19);"/><path d="M203.595,195.323L201.773,201.521L208.997,200.554L203.595,195.323Z" style="fill:rgb(147,19,19);"/><path d="M203.866,195.323L208.997,200.245L208.997,194.164L203.866,195.323Z" style="fill:rgb(150,20,20);"/><path d="M196.592,196.444L203.595,195.323L197.299,190.891L196.592,196.444Z" style="fill:rgb(137,17,17);"/><path d="M197.299,190.891L203.595,195.08L204.552,190.253L197.299,190.891Z" style="fill:rgb(143,18,18);"/><path d="M204.792,190.253L203.866,195.08L208.997,193.668L204.792,190.253Z" style="fill:rgb(152,21,21);"/><path d="M205.032,190.253L208.997,193.338L208.426,190.891L205.032,190.253Z" style="fill:rgb(154,21,21);"/><path d="M207.885,206.404L208.997,200.612L210.935,203.756L207.885,206.404Z" style="fill:rgb(155,22,22);"/><path d="M208.402,206.646L209.41,216.143L214.22,209.199L208.402,206.646Z" style="fill:rgb(158,22,22);"/><path d="M208.402,206.008L210.935,203.943L214.22,208.87L208.402,206.008Z" style="fill:rgb(155,22,22);"/><path d="M209.41,216.795L213.46,219.486L210.492,223.811L209.41,216.795Z" style="fill:rgb(152,21,21);"/><path d="M209.41,216.143L214.694,208.87L214.22,219.342L209.41,216.143Z" style="fill:rgb(160,23,23);"/><path d="M211.311,203.943L214.694,208.87L216.489,203.943L211.311,203.943Z" style="fill:rgb(165,24,24);"/><path d="M214.694,209.321L214.22,219.342L222.47,214.106L214.694,209.321Z" style="fill:rgb(164,24,24);"/><path d="M216.489,203.943L214.694,208.87L222.47,214.106L216.489,203.943Z" style="fill:rgb(166,25,25);"/><path d="M216.843,203.943L222.47,214.106L226.377,208.232L216.843,203.943Z" style="fill:rgb(176,27,27);"/><path d="M217.106,203.943L226.377,208.232L225.439,202.864L217.106,203.943Z" style="fill:rgb(175,27,27);"/><path d="M222.929,214.106L226.377,208.87L229.885,217.765L222.929,214.106Z" style="fill:rgb(184,29,29);"/><path d="M226.407,208.232L225.523,202.864L231.116,206.284L226.407,208.232Z" style="fill:rgb(190,31,31);"/><path d="M226.407,208.87L229.885,217.47L231.116,206.359L226.407,208.87Z" style="fill:rgb(191,31,31);"/><path d="M225.523,202.864L231.116,206.359L230.627,203.943L225.523,202.864Z" style="fill:rgb(192,32,32);"/><path d="M229.885,217.47L231.116,206.359L238.662,215.481L229.885,217.47Z" style="fill:rgb(198,33,33);"/><path d="M231.425,206.359L238.662,215.12L237.164,206.879L231.425,206.359Z" style="fill:rgb(203,35,35);"/><path d="M230.591,203.943L231.425,206.078L237.164,206.812L230.591,203.943Z" style="fill:rgb(198,33,33);"/><path d="M236.198,224.482L249.265,228.311L235.993,235.981L236.198,224.482Z" style="fill:rgb(205,35,35);"/><path d="M235.993,235.981L249.265,228.311L247.138,239.768L235.993,235.981Z" style="fill:rgb(212,37,37);"/><path d="M236.198,235.981L246.901,239.768L238.038,250.343L236.198,235.981Z" style="fill:rgb(205,35,35);"/><path d="M236.198,236.438L238.051,250.343L226.389,241.942L236.198,236.438Z" style="fill:rgb(189,31,31);"/><path d="M226.389,241.891L238.051,250.343L227.317,254.952L226.389,241.891Z" style="fill:rgb(182,29,29);"/><path d="M226.389,241.891L227.608,254.952L219.737,241.891L226.389,241.891Z" style="fill:rgb(172,26,26);"/><path d="M219.737,241.891L227.048,254.952L214.512,253.958L219.737,241.891Z" style="fill:rgb(164,24,24);"/><path d="M219.737,241.891L214.512,253.826L205.431,248.422L219.737,241.891Z" style="fill:rgb(154,21,21);"/><path d="M205.431,248.422L219.082,241.891L212.584,237.764L205.431,248.422Z" style="fill:rgb(149,20,20);"/><path d="M205.431,248.422L212.584,237.764L198.907,239.63L205.431,248.422Z" style="fill:rgb(134,16,16);"/><path d="M198.907,239.672L212.584,237.764L199.417,232.139L198.907,239.672Z" style="fill:rgb(132,15,15);"/><path d="M200.39,232.139L207.74,230.967L211.927,237.764L200.39,232.139Z" style="fill:rgb(142,18,18);"/><path d="M198.907,239.672L199.417,232.139L197.655,224.117L198.907,239.672Z" style="fill:rgb(127,14,14);"/></g><g transform="matrix(1.5215,0,0,1.5215,-83.7941,-81.455)"><path d="M185.499,182.707L193.713,189.018L189.741,177.391L185.499,182.707Z" style="fill:rgb(160,136,136);"/><path d="M189.986,177.969L193.713,189.018L197.641,183.204L189.986,177.969Z" style="fill:rgb(145,117,117);"/><path d="M189.986,177.969L197.441,183.112L193.122,172.836L189.986,177.969Z" style="fill:rgb(160,136,136);"/><path d="M193.201,173.081L197.441,183.493L197.815,166.606L193.201,173.081Z" style="fill:rgb(151,124,124);"/><path d="M207.859,153.203L207.669,169.814L213.743,161.428L207.859,153.203Z" style="fill:rgb(162,138,138);"/><path d="M207.841,153.203L213.743,161.428L216.824,157.453L207.841,153.203Z" style="fill:rgb(174,153,153);"/><path d="M207.841,153.203L216.824,157.453L214.529,144.395L207.841,153.203Z" style="fill:rgb(160,136,136);"/><path d="M214.529,144.395L216.824,157.453L221.04,151.564L214.529,144.395Z" style="fill:rgb(171,149,149);"/><path d="M214.529,144.395L221.04,151.564L221.953,143.11L214.529,144.395Z" style="fill:rgb(153,127,127);"/><path d="M214.529,144.395L221.953,143.11L219.799,137.171L214.529,144.395Z" style="fill:rgb(168,145,145);"/><path d="M221.953,143.11L221.04,151.564L224.118,147.685L221.953,143.11Z" style="fill:rgb(166,143,143);"/><path d="M219.8,137.171L221.953,143.11L224.118,131.532L219.8,137.171Z" style="fill:rgb(145,117,117);"/><path d="M222.009,143.11L224.118,147.687L229.91,139.725L222.009,143.11Z" style="fill:rgb(147,119,119);"/><path d="M224.118,131.532L221.953,143.11L229.91,139.725L224.118,131.532Z" style="fill:rgb(165,142,142);"/><path d="M224.118,131.532L229.91,139.725L233.325,135.255L224.118,131.532Z" style="fill:rgb(151,124,124);"/><path d="M224.118,131.532L233.325,135.259L227.571,127.244L224.118,131.532Z" style="fill:rgb(155,130,130);"/><path d="M227.475,127.244L233.325,135.022L234.984,131.532L227.475,127.244Z" style="fill:rgb(145,117,117);"/><path d="M227.475,127.244L234.954,131.532L234.954,128.114L227.475,127.244Z" style="fill:rgb(145,117,117);"/><path d="M227.475,127.244L234.954,128.114L233.325,124.345L227.475,127.244Z" style="fill:rgb(145,117,117);"/><path d="M227.969,126.23L231.037,122.199L233.325,124.345L227.969,126.23Z" style="fill:rgb(145,117,117);"/></g><g transform="matrix(1.5215,0,0,1.5215,-83.7941,-81.455)"><path d="M207.561,190.253L197.441,190.253L207.561,182.483L207.561,190.253Z" style="fill:rgb(158,134,134);"/><path d="M197.441,190.253L207.561,182.483L198.232,180.408L197.441,190.253Z" style="fill:rgb(170,148,148);"/><path d="M198.232,180.408L207.561,182.483L207.669,173.692L198.232,180.408Z" style="fill:rgb(156,131,131);"/><path d="M198.232,180.408L207.669,173.658L198.232,172.679L198.232,180.408Z" style="fill:rgb(179,159,159);"/><path d="M207.669,173.692L198.232,172.679L207.561,166.652L207.669,173.692Z" style="fill:rgb(158,133,133);"/><path d="M198.232,172.679L207.669,166.652L197.815,161.428L198.232,172.679Z" style="fill:rgb(153,127,127);"/><path d="M197.815,161.428L207.561,166.652L207.561,156.91L197.815,161.428Z" style="fill:rgb(175,155,155);"/><path d="M197.815,161.428L207.561,156.91L197.815,151.577L197.815,161.428Z" style="fill:rgb(182,163,163);"/><path d="M197.815,151.577L207.561,156.894L207.669,146.626L197.815,151.577Z" style="fill:rgb(191,174,174);"/><path d="M197.815,151.564L207.669,146.626L197.815,144.066L197.815,151.564Z" style="fill:rgb(168,146,146);"/><path d="M197.815,144.066L207.669,146.626L207.561,141.309L197.815,144.066Z" style="fill:rgb(172,151,151);"/><path d="M197.815,143.968L207.561,141.309L197.815,134.74L197.815,143.968Z" style="fill:rgb(151,125,125);"/><path d="M197.815,134.74L207.669,141.309L207.669,125.172L197.815,134.74Z" style="fill:rgb(171,150,150);"/><path d="M207.669,125.172L197.815,134.74L197.815,127.324L207.669,125.172Z" style="fill:rgb(150,123,123);"/><path d="M197.815,127.344L207.859,125.172L197.815,123.731L197.815,127.344Z" style="fill:rgb(151,124,124);"/><path d="M207.561,125.172L197.815,123.731L198.457,121.023L207.561,125.172Z" style="fill:rgb(146,118,118);"/><path d="M207.561,125.172L198.448,121.023L199.626,118.532L207.561,125.172Z" style="fill:rgb(152,125,125);"/><path d="M207.561,125.172L199.697,118.532L207.561,118.834L207.561,125.172Z" style="fill:rgb(145,117,117);"/><path d="M199.697,118.532L203.629,115.325L207.669,118.762L199.697,118.532Z" style="fill:rgb(148,121,121);"/><path d="M203.629,115.325L207.669,118.762L207.561,114.529L203.629,115.325Z" style="fill:rgb(145,117,117);"/></g><g transform="matrix(1.5215,0,0,1.5215,-83.7941,-81.455)"><path d="M199.693,169.928L201.971,169.27L201.865,171.596L199.693,169.928Z" style="fill:rgb(144,15,15);"/><path d="M201.971,169.27L199.693,169.928L200.315,168.108L201.971,169.27Z" style="fill:rgb(151,17,17);"/><path d="M199.693,169.928L200.315,168.108L199.273,168.108L199.693,169.928Z" style="fill:rgb(125,8,8);"/><path d="M199.273,168.108L200.315,168.108L199.575,166.863L199.273,168.108Z" style="fill:rgb(123,7,7);"/><path d="M199.575,166.863L200.315,168.108L201.971,167.098L199.575,166.863Z" style="fill:rgb(149,16,16);"/><path d="M200.315,168.108L201.971,167.098L201.971,168.749L200.315,168.108Z" style="fill:rgb(177,26,26);"/><path d="M201.971,167.098L200.315,168.108L200.174,165.912L201.971,167.098Z" style="fill:rgb(132,10,10);"/><path d="M205.51,169.063L206.214,168.443L206.086,169.235L205.51,169.063Z" style="fill:rgb(119,6,6);"/><path d="M206.086,169.235L205.51,169.063L205.571,170.301L206.086,169.235Z" style="fill:rgb(122,7,7);"/><path d="M203.283,169.063L204.524,169.063L203.834,170.967L203.283,169.063Z" style="fill:rgb(155,18,18);"/><path d="M203.834,170.967L204.524,169.063L205.51,169.063L203.834,170.967Z" style="fill:rgb(142,14,14);"/><path d="M205.51,169.063L203.834,170.967L205.571,170.301L205.51,169.063Z" style="fill:rgb(121,6,6);"/><path d="M205.571,170.301L203.834,170.967L204.374,171.371L205.571,170.301Z" style="fill:rgb(117,5,5);"/><path d="M203.283,169.063L203.834,170.967L201.971,169.28L203.283,169.063Z" style="fill:rgb(160,20,20);"/><path d="M201.971,169.28L201.971,168.744L202.828,169.143L201.971,169.28Z" style="fill:rgb(183,28,28);"/><path d="M203.283,169.063L203.376,168.768L203.16,168.967L203.283,169.063Z" style="fill:rgb(189,30,30);"/><path d="M202.659,169.063L202.828,169.148L202.886,169.063L202.659,169.063Z" style="fill:rgb(189,31,31);"/><path d="M202.886,169.063L202.828,169.148L203.097,169.094L202.886,169.063Z" style="fill:rgb(189,31,31);"/><path d="M203.097,169.094L202.886,169.063L203.097,168.993L203.097,169.094Z" style="fill:rgb(189,31,31);"/><path d="M203.097,168.993L203.097,169.094L203.285,169.063L203.097,168.993Z" style="fill:rgb(188,30,30);"/><path d="M203.285,169.063L203.097,168.993L203.16,168.967L203.285,169.063Z" style="fill:rgb(189,30,30);"/><path d="M201.975,169.28L203.831,170.965L201.867,171.596L201.975,169.28Z" style="fill:rgb(157,19,19);"/><path d="M201.867,171.596L203.831,170.965L202.708,171.763L201.867,171.596Z" style="fill:rgb(121,6,6);"/><path d="M202.708,171.763L203.831,170.965L204.373,171.371L202.708,171.763Z" style="fill:rgb(119,6,6);"/><path d="M199.693,169.928L201.867,171.596L200.655,171.064L199.693,169.928Z" style="fill:rgb(116,5,5);"/><path d="M200.174,165.912L199.575,166.863L200.255,166.934L200.174,165.912Z" style="fill:rgb(118,6,6);"/><path d="M201.971,168.749L200.32,168.108L201.971,169.28L201.971,168.749Z" style="fill:rgb(179,27,27);"/><path d="M200.174,165.912L201.971,167.098L202.112,164.879L200.174,165.912Z" style="fill:rgb(132,10,10);"/><path d="M201.971,167.098L202.112,164.879L203.948,166.48L201.971,167.098Z" style="fill:rgb(148,16,16);"/><path d="M202.112,164.879L203.948,166.48L204.424,165.257L202.112,164.879Z" style="fill:rgb(123,7,7);"/><path d="M201.971,167.098L201.971,167.761L202.848,167.479L201.971,167.098Z" style="fill:rgb(188,30,30);"/><path d="M203.948,166.48L204.424,165.263L205.449,166.067L203.948,166.48Z" style="fill:rgb(122,7,7);"/><path d="M203.654,167.823L203.948,166.48L205.242,167.645L203.654,167.823Z" style="fill:rgb(153,18,18);"/><path d="M203.948,166.48L205.242,167.645L205.449,166.07L203.948,166.48Z" style="fill:rgb(130,10,10);"/><path d="M205.449,166.07L205.242,167.645L206.04,167.25L205.449,166.07Z" style="fill:rgb(120,6,6);"/><path d="M203.654,167.823L205.242,167.645L204.52,169.063L203.654,167.823Z" style="fill:rgb(153,18,18);"/><path d="M205.242,167.645L206.04,167.244L206.211,168.454L205.242,167.645Z" style="fill:rgb(116,5,5);"/><path d="M206.211,168.454L205.242,167.645L205.501,169.063L206.211,168.454Z" style="fill:rgb(129,9,9);"/><path d="M204.524,169.063L205.242,167.645L205.51,169.063L204.524,169.063Z" style="fill:rgb(139,13,13);"/><path d="M203.654,167.823L204.524,169.063L203.283,169.063L203.654,167.823Z" style="fill:rgb(168,23,23);"/><path d="M203.534,168.223L203.654,167.823L203.139,167.603L203.534,168.223Z" style="fill:rgb(186,29,29);"/><path d="M203.948,166.48L201.971,167.098L203.647,167.823L203.948,166.48Z" style="fill:rgb(178,27,27);"/></g><defs><radialGradient id="_Radial1" cx="0" cy="0" r="1" gradientUnits="userSpaceOnUse" gradientTransform="matrix(5.37023,0,0,44.659,124.797,95.0462)"><stop offset="0" style="stop-color:rgb(203,189,189);stop-opacity:1"/><stop offset="1" style="stop-color:rgb(145,117,117);stop-opacity:1"/></radialGradient><linearGradient id="_Linear2" x1="0" y1="0" x2="1" y2="0" gradientUnits="userSpaceOnUse" gradientTransform="matrix(97.4974,84.0868,-84.0868,97.4974,54.4961,95.2751)"><stop offset="0" style="stop-color:rgb(255,49,49);stop-opacity:1"/><stop offset="1" style="stop-color:rgb(77,0,0);stop-opacity:1"/></linearGradient><radialGradient id="_Radial3" cx="0" cy="0" r="1" gradientUnits="userSpaceOnUse" gradientTransform="matrix(5.37023,0,0,44.659,124.797,95.0462)"><stop offset="0" style="stop-color:rgb(203,189,189);stop-opacity:1"/><stop offset="1" style="stop-color:rgb(145,117,117);stop-opacity:1"/></radialGradient><linearGradient id="_Linear4" x1="0" y1="0" x2="1" y2="0" gradientUnits="userSpaceOnUse" gradientTransform="matrix(-92.2569,11.594,11.594,92.2569,186.463,138.89)"><stop offset="0" style="stop-color:rgb(255,49,49);stop-opacity:1"/><stop offset="1" style="stop-color:rgb(77,0,0);stop-opacity:1"/></linearGradient><radialGradient id="_Radial5" cx="0" cy="0" r="1" gradientUnits="userSpaceOnUse" gradientTransform="matrix(3.46894,0,-0,3.46894,202.742,165.294)"><stop offset="0" style="stop-color:rgb(213,39,39);stop-opacity:1"/><stop offset="1" style="stop-color:rgb(111,3,3);stop-opacity:1"/></radialGradient></defs></svg>